<svg width="24" height="24" viewBox="0 0 24 24" fill="none" xmlns="http://www.w3.org/2000/svg">
<g clip-path="url(#clip0_0_93)">
<path d="M0 11.5C0 6.07885 0 3.36827 1.68413 1.68413C3.36827 0 6.07885 0 11.5 0H12.5C17.9212 0 20.6318 0 22.3158 1.68413C24 3.36827 24 6.07885 24 11.5V12.5C24 17.9212 24 20.6318 22.3158 22.3158C20.6318 24 17.9212 24 12.5 24H11.5C6.07885 24 3.36827 24 1.68413 22.3158C0 20.6318 0 17.9212 0 12.5L0 11.5Z" fill="#F9F9F9"/>
<path fill-rule="evenodd" clip-rule="evenodd" d="M16.2001 4.80005H13.9842C11.9448 4.80005 10.291 6.43733 10.291 8.45632V10.6501H8.07507V13.5751H10.291V19.4251H13.2456V13.5751H15.4615L16.2001 10.6501H13.2456V8.45632C13.2456 8.05267 13.5765 7.72506 13.9842 7.72506H16.2001V4.80005Z" fill="black"/>
</g>
<defs>
<clipPath id="clip0_0_93">
<rect width="24" height="24" fill="white"/>
</clipPath>
</defs>
</svg>
