<svg width="24" height="24" viewBox="0 0 24 24" fill="none" xmlns="http://www.w3.org/2000/svg">
<g clip-path="url(#clip0_0_94)">
<path d="M0 11.5C0 6.07885 0 3.36827 1.68413 1.68413C3.36827 0 6.07885 0 11.5 0H12.5C17.9212 0 20.6318 0 22.3158 1.68413C24 3.36827 24 6.07885 24 11.5V12.5C24 17.9212 24 20.6318 22.3158 22.3158C20.6318 24 17.9212 24 12.5 24H11.5C6.07885 24 3.36827 24 1.68413 22.3158C0 20.6318 0 17.9212 0 12.5L0 11.5Z" fill="#F9F9F9"/>
<path fill-rule="evenodd" clip-rule="evenodd" d="M19.4782 5.99946C18.8512 6.45562 18.1574 6.80502 17.423 7.03344C16.6153 6.07517 15.314 5.73861 14.1647 6.19138C13.0153 6.64484 12.2619 7.79032 12.2782 9.0608V9.73658C9.94217 9.79943 7.73047 8.6499 6.38734 6.67525C6.38734 6.67525 3.76916 12.7573 9.66007 15.4605C8.31236 16.4052 6.7061 16.8789 5.07825 16.812C10.9692 20.191 18.1692 16.812 18.1692 9.0405C18.1685 8.85196 18.1508 8.66475 18.1168 8.47959C18.7851 7.79975 19.2564 6.94083 19.4782 5.99946Z" fill="black"/>
</g>
<defs>
<clipPath id="clip0_0_94">
<rect width="24" height="24" fill="white"/>
</clipPath>
</defs>
</svg>
