<svg width="24" height="24" viewBox="0 0 24 24" fill="none" xmlns="http://www.w3.org/2000/svg">
<g clip-path="url(#clip0_0_95)">
<path d="M0 11.5C0 6.07885 0 3.36827 1.68413 1.68413C3.36827 0 6.07885 0 11.5 0H12.5C17.9212 0 20.6318 0 22.3158 1.68413C24 3.36827 24 6.07885 24 11.5V12.5C24 17.9212 24 20.6318 22.3158 22.3158C20.6318 24 17.9212 24 12.5 24H11.5C6.07885 24 3.36827 24 1.68413 22.3158C0 20.6318 0 17.9212 0 12.5L0 11.5Z" fill="#F9F9F9"/>
<path d="M12.7145 17C7.24792 17 4.12992 13.2462 4 7H6.73829C6.82823 11.5846 8.84692 13.5265 10.4459 13.9269V7H13.0244V10.954C14.6034 10.7838 16.2622 8.98198 16.8218 7H19.4003C18.9705 9.44244 17.1717 11.2442 15.8925 11.985C17.1717 12.5856 19.2205 14.1572 20 17H17.1617C16.5521 15.0981 15.0332 13.6266 13.0244 13.4264V17H12.7145Z" fill="black"/>
</g>
<defs>
<clipPath id="clip0_0_95">
<rect width="24" height="24" fill="white"/>
</clipPath>
</defs>
</svg>
